<svg width="447" height="278" viewBox="0 0 447 278" fill="none" xmlns="http://www.w3.org/2000/svg">
<path d="M354.497 95.7162C344.362 95.7162 334.687 97.5547 325.474 100.312L289.08 12.9861H348.047V0.116943H279.405C277.102 0.116943 275.259 1.03617 273.877 2.87462C272.956 4.71306 272.495 7.01112 273.417 9.30918L291.383 52.5127L159.167 50.6743L147.65 20.3399C146.729 18.0418 144.425 16.2034 141.661 16.2034H104.807V29.0725H137.055L147.19 55.73L125.537 102.61C114.942 98.4739 103.885 96.1758 91.9076 96.1758C70.7162 96.1758 51.3675 103.53 35.7043 115.48H0.692383V128.349H72.0982V115.02H60.5812C70.2555 110.883 80.8512 108.585 91.9076 108.585C102.043 108.585 111.256 110.424 120.009 114.101L94.211 170.173C93.2896 170.173 92.829 170.173 91.9076 170.173C82.2332 170.173 73.941 177.987 73.941 188.098C73.941 197.75 81.7726 206.023 91.9076 206.023C98.3571 206.023 103.885 202.806 107.11 197.29L169.302 197.75C163.774 235.898 131.066 264.853 91.9076 264.853C48.6034 264.853 13.5915 229.923 13.5915 186.719C13.5915 168.335 20.0411 151.329 30.6368 138.001H22.3445H14.9736C5.7599 152.249 0.692383 168.795 0.692383 186.719C0.692383 236.817 41.6932 277.723 91.9076 277.723C138.437 277.723 177.134 242.792 182.662 197.75L239.326 198.669C241.63 198.669 243.933 197.29 245.315 194.992L301.058 74.5741L313.957 105.368C284.012 120.535 263.742 151.329 263.742 186.719C263.742 236.817 304.743 277.723 354.958 277.723C405.172 277.723 446.173 236.817 446.173 186.719C446.173 136.622 405.172 95.7162 354.497 95.7162ZM109.414 183.962C108.953 181.204 107.571 178.446 105.728 176.148L131.526 119.616C154.1 132.945 169.302 157.304 169.763 184.881L109.414 183.962ZM183.123 184.881C182.662 151.789 164.235 123.293 137.055 107.666L153.639 72.276L196.483 185.341L183.123 184.881ZM234.719 185.8L210.303 185.341L164.235 63.0838L290.923 64.9222L234.719 185.8ZM354.497 264.853C311.193 264.853 276.181 229.923 276.181 186.719C276.181 156.385 293.226 130.187 318.564 117.318L342.058 173.85C338.834 177.068 336.53 181.664 336.53 186.719C336.53 196.371 344.362 204.644 354.497 204.644C364.632 204.644 372.463 196.831 372.463 186.719C372.463 177.068 364.632 168.795 354.497 168.795H354.036L330.541 112.262C337.912 109.964 346.205 108.585 354.497 108.585C397.801 108.585 432.813 143.516 432.813 186.719C433.274 229.923 397.801 264.853 354.497 264.853Z" fill="#836B5D"/>
</svg>
