<svg width="46" height="51" viewBox="0 0 46 51" fill="none" xmlns="http://www.w3.org/2000/svg">
<path d="M36.3011 22.9811V18.1513H42.7998C44.5373 18.1513 45.9509 16.7377 45.9509 15.0001V3.61281C45.9509 1.87527 44.5373 0.46167 42.7998 0.46167H7.34201C3.7982 0.46167 0.912109 3.34777 0.912109 6.89158V50.3303H45.9509V42.2904H37.0177C38.0681 41.2695 38.716 39.8461 38.716 38.2656V37.4606H41.1309C42.466 37.4606 43.5458 36.3808 43.5458 35.0457V30.2159C43.5458 28.8809 42.466 27.801 41.1309 27.801H38.716V25.396H21.0166V38.2656C21.0166 39.8363 21.6645 41.2597 22.7149 42.2904H15.3917V18.1611H23.4315V22.9909H28.2613V18.1611H31.4812V22.9909H36.3011V22.9811ZM34.6912 21.3711H33.0813V18.1513H34.6912V21.3711ZM41.1309 29.4208C41.5727 29.4208 41.9359 29.784 41.9359 30.2258V35.0555C41.9359 35.4973 41.5727 35.8605 41.1309 35.8605H38.716V29.4208H41.1309ZM22.6265 38.2656V27.0059H37.1061V27.8109V37.4606V38.2656C37.1061 40.4842 35.2998 42.2904 33.0813 42.2904H26.6514C24.4328 42.2904 22.6265 40.4842 22.6265 38.2656ZM26.6514 21.3711H25.0414V18.1513H26.6514V21.3711ZM28.2613 16.5512H23.4315H13.7817V43.9004H26.6514H33.0813H44.341V48.7301H2.52204V6.89158C2.52204 4.23126 4.6817 2.0716 7.34201 2.0716H42.7998C43.6538 2.0716 44.341 2.76858 44.341 3.61281V15.0001C44.341 15.8542 43.644 16.5512 42.7998 16.5512H36.3011H31.4713H28.2613Z" fill="#CC9180"/>
<path d="M9.73772 4.48486C7.51916 4.48486 5.71289 6.29113 5.71289 8.50969C5.71289 10.7283 7.51916 12.5345 9.73772 12.5345C11.9563 12.5345 13.7625 10.7283 13.7625 8.50969C13.7625 6.28131 11.9563 4.48486 9.73772 4.48486ZM9.73772 10.9148C8.40265 10.9148 7.32282 9.83494 7.32282 8.49988C7.32282 7.16481 8.40265 6.08498 9.73772 6.08498C11.0728 6.08498 12.1526 7.16481 12.1526 8.49988C12.1526 9.83494 11.0728 10.9148 9.73772 10.9148Z" fill="#CC9180"/>
<path d="M30.6724 7.69482H29.0625V9.30475H30.6724V7.69482Z" fill="#CC9180"/>
<path d="M33.8658 7.69482H32.2559V9.30475H33.8658V7.69482Z" fill="#CC9180"/>
<path d="M27.4166 7.69482H25.8066V9.30475H27.4166V7.69482Z" fill="#CC9180"/>
</svg>
