<svg width="46" height="53" viewBox="0 0 46 53" fill="none" xmlns="http://www.w3.org/2000/svg">
<path d="M6.87192 3.87985L6.87252 3.87805L6.87432 3.87985L6.63605 5.00758L6.39778 6.1353L7.39047 5.54954L8.44437 4.93676L9.49948 5.54954L10.4922 6.1353L10.2539 5.00758L10.0156 3.87985L10.0168 3.87865L10.0174 3.87985L10.8457 3.07862L11.6745 2.27739L10.524 2.20717L9.37344 2.13635L8.90891 1.08185L8.44437 0.0273438L7.97984 1.08185L7.51531 2.13635L7.51111 2.14836L7.51531 2.13635L6.36538 2.20717L5.21484 2.27739L6.04368 3.07862L6.87192 3.87985Z" fill="#92C2D6"/>
<path d="M14.161 3.87985L14.1616 3.87805L14.1634 3.87985L13.9251 5.00758L13.6868 6.1353L14.6795 5.54954L15.7334 4.93676L16.7885 5.54954L17.7812 6.1353L17.543 5.00758L17.3047 3.87985L17.3059 3.87865L17.3065 3.87985L18.1347 3.07862L18.9636 2.27739L17.813 2.20717L16.6625 2.13635L16.198 1.08185L15.7334 0.0273438L15.2689 1.08185L14.8044 2.13635L14.8002 2.14836L14.8044 2.13635L13.6544 2.20717L12.5039 2.27739L13.3327 3.07862L14.161 3.87985Z" fill="#92C2D6"/>
<path d="M21.409 3.87985L21.4096 3.87805L21.4114 3.87985L21.1732 5.00758L20.9349 6.1353L21.9276 5.54954L22.9815 4.93676L24.0366 5.54954L25.0293 6.1353L24.791 5.00758L24.5527 3.87985L24.5539 3.87865L24.5545 3.87985L25.3828 3.07862L26.2116 2.27739L25.0611 2.20717L23.9105 2.13635L23.446 1.08185L22.9815 0.0273438L22.5169 1.08185L22.0524 2.13635L22.0482 2.14836L22.0524 2.13635L20.9025 2.20717L19.752 2.27739L20.5808 3.07862L21.409 3.87985Z" fill="#92C2D6"/>
<path d="M28.7665 3.87985L28.7671 3.87805L28.7689 3.87985L28.5306 5.00758L28.2923 6.1353L29.285 5.54954L30.3395 4.93676L31.394 5.54954L32.3867 6.1353L32.1484 5.00758L31.9102 3.87985L31.9114 3.87865L31.912 3.87985L32.7402 3.07862L33.569 2.27739L32.4185 2.20717L31.2686 2.13635L30.804 1.08185L30.3395 0.0273438L29.875 1.08185L29.4104 2.13635L29.4056 2.14836L29.4104 2.13635L28.2599 2.20717L27.1094 2.27739L27.9382 3.07862L28.7665 3.87985Z" fill="#92C2D6"/>
<path d="M36.0164 3.87985L36.0171 3.87805L36.0189 3.87985L35.7806 5.00758L35.5423 6.1353L36.535 5.54954L37.5895 4.93676L38.644 5.54954L39.6367 6.1353L39.3984 5.00758L39.1602 3.87985L39.1614 3.87865L39.162 3.87985L39.9902 3.07862L40.819 2.27739L39.6685 2.20717L38.5186 2.13635L38.054 1.08185L37.5895 0.0273438L37.125 1.08185L36.6604 2.13635L35.5099 2.20717L34.3594 2.27739L35.1882 3.07862L36.0164 3.87985Z" fill="#92C2D6"/>
<path d="M45.1044 10.9219H43.5896V7.97326C43.5896 7.47571 43.1863 7.073 42.6893 7.073H3.372C2.87445 7.073 2.47174 7.47571 2.47174 7.97326V10.9219H0.9569C0.459357 10.9219 0.0566406 11.3246 0.0566406 11.8222V51.427C0.0566406 51.924 0.459357 52.3273 0.9569 52.3273H19.7675H26.2938H45.105C45.602 52.3273 46.0053 51.924 46.0053 51.427V11.8222C46.0047 11.3246 45.6014 10.9219 45.1044 10.9219ZM4.27225 8.87352H41.7891V10.9219H4.27225V8.87352ZM25.3935 50.5268H20.6678V40.8976H25.3935V50.5268ZM44.2042 50.5268H27.1941V39.9973C27.1941 39.5004 26.7907 39.0971 26.2938 39.0971H19.7675C19.27 39.0971 18.8673 39.5004 18.8673 39.9973V50.5268H1.85716V12.7224H3.08091C3.17274 12.7542 3.26997 12.7746 3.3726 12.7746H42.6899C42.7925 12.7746 42.8898 12.7536 42.9816 12.7224H44.2054V50.5268H44.2042Z" fill="#92C2D6"/>
<path d="M13.3308 14.9644H6.80456C6.30701 14.9644 5.9043 15.3671 5.9043 15.8646V20.0922C5.9043 20.5898 6.30701 20.9925 6.80456 20.9925H13.3308C13.8284 20.9925 14.2311 20.5898 14.2311 20.0922V15.8646C14.2311 15.3671 13.8278 14.9644 13.3308 14.9644ZM12.4306 19.192H7.70482V16.7649H12.4306V19.192Z" fill="#92C2D6"/>
<path d="M26.2937 14.9644H19.7674C19.2699 14.9644 18.8672 15.3671 18.8672 15.8646V20.0922C18.8672 20.5898 19.2699 20.9925 19.7674 20.9925H26.2937C26.7907 20.9925 27.194 20.5898 27.194 20.0922V15.8646C27.194 15.3671 26.7907 14.9644 26.2937 14.9644ZM25.3935 19.192H20.6677V16.7649H25.3935V19.192Z" fill="#92C2D6"/>
<path d="M39.2566 14.9644H32.7303C32.2334 14.9644 31.8301 15.3671 31.8301 15.8646V20.0922C31.8301 20.5898 32.2334 20.9925 32.7303 20.9925H39.2566C39.7536 20.9925 40.1569 20.5898 40.1569 20.0922V15.8646C40.1569 15.3671 39.7536 14.9644 39.2566 14.9644ZM38.3564 19.192H33.6306V16.7649H38.3564V19.192Z" fill="#92C2D6"/>
<path d="M13.3308 23.0073H6.80456C6.30701 23.0073 5.9043 23.41 5.9043 23.9076V28.1352C5.9043 28.6321 6.30701 29.0355 6.80456 29.0355H13.3308C13.8284 29.0355 14.2311 28.6321 14.2311 28.1352V23.9076C14.2311 23.41 13.8278 23.0073 13.3308 23.0073ZM12.4306 27.2349H7.70482V24.8078H12.4306V27.2349Z" fill="#92C2D6"/>
<path d="M26.2937 23.0073H19.7674C19.2699 23.0073 18.8672 23.41 18.8672 23.9076V28.1352C18.8672 28.6321 19.2699 29.0355 19.7674 29.0355H26.2937C26.7907 29.0355 27.194 28.6321 27.194 28.1352V23.9076C27.194 23.41 26.7907 23.0073 26.2937 23.0073ZM25.3935 27.2349H20.6677V24.8078H25.3935V27.2349Z" fill="#92C2D6"/>
<path d="M39.2566 23.0073H32.7303C32.2334 23.0073 31.8301 23.41 31.8301 23.9076V28.1352C31.8301 28.6321 32.2334 29.0355 32.7303 29.0355H39.2566C39.7536 29.0355 40.1569 28.6321 40.1569 28.1352V23.9076C40.1569 23.41 39.7536 23.0073 39.2566 23.0073ZM38.3564 27.2349H33.6306V24.8078H38.3564V27.2349Z" fill="#92C2D6"/>
<path d="M13.3308 31.0508H6.80456C6.30701 31.0508 5.9043 31.4541 5.9043 31.951V36.1793C5.9043 36.6762 6.30701 37.0795 6.80456 37.0795H13.3308C13.8284 37.0795 14.2311 36.6762 14.2311 36.1793V31.951C14.2311 31.4541 13.8278 31.0508 13.3308 31.0508ZM12.4306 35.279H7.70482V32.8513H12.4306V35.279Z" fill="#92C2D6"/>
<path d="M26.2937 31.0508H19.7674C19.2699 31.0508 18.8672 31.4541 18.8672 31.951V36.1793C18.8672 36.6762 19.2699 37.0795 19.7674 37.0795H26.2937C26.7907 37.0795 27.194 36.6762 27.194 36.1793V31.951C27.194 31.4541 26.7907 31.0508 26.2937 31.0508ZM25.3935 35.279H20.6677V32.8513H25.3935V35.279Z" fill="#92C2D6"/>
<path d="M39.2566 31.0508H32.7303C32.2334 31.0508 31.8301 31.4541 31.8301 31.951V36.1793C31.8301 36.6762 32.2334 37.0795 32.7303 37.0795H39.2566C39.7536 37.0795 40.1569 36.6762 40.1569 36.1793V31.951C40.1569 31.4541 39.7536 31.0508 39.2566 31.0508ZM38.3564 35.279H33.6306V32.8513H38.3564V35.279Z" fill="#92C2D6"/>
<path d="M13.3308 39.0945H6.80456C6.30701 39.0945 5.9043 39.4978 5.9043 39.9947V44.223C5.9043 44.7199 6.30701 45.1232 6.80456 45.1232H13.3308C13.8284 45.1232 14.2311 44.7199 14.2311 44.223V39.9947C14.2311 39.4978 13.8278 39.0945 13.3308 39.0945ZM12.4306 43.3227H7.70482V40.895H12.4306V43.3227Z" fill="#92C2D6"/>
<path d="M39.2566 39.0945H32.7303C32.2334 39.0945 31.8301 39.4978 31.8301 39.9947V44.223C31.8301 44.7199 32.2334 45.1232 32.7303 45.1232H39.2566C39.7536 45.1232 40.1569 44.7199 40.1569 44.223V39.9947C40.1569 39.4978 39.7536 39.0945 39.2566 39.0945ZM38.3564 43.3227H33.6306V40.895H38.3564V43.3227Z" fill="#92C2D6"/>
</svg>
