<svg width="6" height="6" viewBox="0 0 6 6" fill="none" xmlns="http://www.w3.org/2000/svg">
<path opacity="0.3" d="M3.99 3.00019L5.84618 1.14401C6.05127 0.938922 6.05127 0.606422 5.84618 0.401653L5.59873 0.154201C5.39358 -0.0509517 5.06108 -0.0509517 4.85631 0.154201L3.00019 2.01032L1.14401 0.153817C0.938922 -0.0512722 0.606422 -0.0512722 0.401653 0.153817L0.153817 0.401269C-0.0512722 0.606422 -0.0512722 0.938922 0.153817 1.14369L2.01032 3.00019L0.154201 4.85631C-0.0509517 5.06146 -0.0509517 5.39396 0.154201 5.59873L0.401653 5.84618C0.606742 6.05127 0.939242 6.05127 1.14401 5.84618L3.00019 3.99L4.85631 5.84618C5.06146 6.05127 5.39396 6.05127 5.59873 5.84618L5.84618 5.59873C6.05127 5.39358 6.05127 5.06108 5.84618 4.85631L3.99 3.00019Z" fill="#292929"/>
</svg>
