<svg width="54" height="54" viewBox="0 0 54 54" fill="none" xmlns="http://www.w3.org/2000/svg">
<path d="M50.3234 27.3147L44.0626 19.8799C43.906 19.7234 43.6713 19.5669 43.4365 19.5669H34.8278V32.0886H3.52344V37.5669C3.52344 38.0365 3.83648 38.3495 4.30605 38.3495H8.84518C8.76691 38.5843 8.76691 38.8973 8.76691 39.1321C8.76691 41.3234 10.4887 43.0452 12.68 43.0452C14.8713 43.0452 16.593 41.3234 16.593 39.1321C16.593 38.8973 16.593 38.5843 16.5147 38.3495H38.0365C37.9582 38.5843 37.9582 38.8973 37.9582 39.1321C37.9582 41.3234 39.68 43.0452 41.8713 43.0452C44.0626 43.0452 45.7843 41.3234 45.7843 39.1321C45.7843 38.8973 45.7843 38.5843 45.706 38.3495H49.6973C50.1669 38.3495 50.4799 38.0365 50.4799 37.5669V27.8625V27.7843C50.4799 27.6278 50.4017 27.4712 50.3234 27.3147ZM48.0539 27.0017H42.6539V24.2625H45.706L48.0539 27.0017ZM12.68 41.4799C11.3495 41.4799 10.3321 40.4625 10.3321 39.1321C10.3321 38.7408 10.4104 38.3495 10.6452 37.9582C11.0365 37.2538 11.8191 36.7843 12.68 36.7843C12.9147 36.7843 13.0713 36.7843 13.306 36.8625C13.6973 36.9408 14.0887 37.1756 14.3234 37.4886C14.48 37.6452 14.5582 37.8017 14.7147 37.9582C14.9495 38.3495 15.0278 38.7408 15.0278 39.1321C15.0278 40.4625 13.9321 41.4799 12.68 41.4799ZM41.8713 41.4799C40.5408 41.4799 39.5234 40.4625 39.5234 39.1321C39.5234 38.7408 39.6017 38.3495 39.8365 37.9582C40.2278 37.2538 41.0104 36.7843 41.8713 36.7843C42.106 36.7843 42.2626 36.7843 42.4973 36.8625C42.8886 36.9408 43.28 37.1756 43.5147 37.4886C43.6713 37.6452 43.7495 37.8017 43.906 37.9582C44.1408 38.3495 44.2191 38.7408 44.2191 39.1321C44.2191 40.4625 43.2017 41.4799 41.8713 41.4799ZM48.9147 36.7843H45.0017C45.0017 36.706 44.9234 36.706 44.9234 36.6278C44.8452 36.5495 44.7669 36.4712 44.6886 36.393C44.6104 36.3147 44.6104 36.3147 44.5321 36.2365C44.4539 36.1582 44.3756 36.0799 44.2973 36.0799C44.2191 36.0017 44.2191 36.0017 44.1408 36.0017C44.0626 35.9234 43.9843 35.9234 43.906 35.8452C43.8278 35.8452 43.8278 35.7669 43.7495 35.7669C43.6713 35.6886 43.593 35.6886 43.5147 35.6104C43.4365 35.6104 43.3582 35.5321 43.3582 35.5321C43.28 35.5321 43.2017 35.4538 43.0452 35.4538C42.9669 35.4538 42.8886 35.4538 42.8886 35.3756C42.8104 35.3756 42.6539 35.2973 42.5756 35.2973C42.4973 35.2973 42.4973 35.2973 42.4191 35.2973C42.2626 35.2973 42.106 35.2973 41.9495 35.2973C41.793 35.2973 41.6365 35.2973 41.48 35.2973C41.4017 35.2973 41.4017 35.2973 41.3234 35.2973C41.2452 35.2973 41.0886 35.2973 41.0104 35.3756C40.9321 35.3756 40.8539 35.3756 40.8539 35.4538C40.7756 35.4538 40.6973 35.5321 40.5408 35.5321C40.4626 35.5321 40.3843 35.6104 40.3843 35.6104C40.306 35.6886 40.2278 35.6886 40.1495 35.7669C40.0713 35.7669 40.0713 35.8452 39.993 35.8452C39.9147 35.9234 39.8365 35.9234 39.7582 36.0017C39.68 36.0017 39.68 36.0799 39.6017 36.0799C39.5234 36.1582 39.4452 36.2365 39.3669 36.2365C39.2886 36.3147 39.2886 36.3147 39.2104 36.393C39.1321 36.4712 39.0539 36.5495 38.9756 36.6278C38.9756 36.706 38.8973 36.706 38.8973 36.7843H15.8104C15.8104 36.706 15.7321 36.706 15.7321 36.6278C15.6539 36.5495 15.5756 36.4712 15.4973 36.393C15.4191 36.3147 15.4191 36.3147 15.3408 36.2365C15.2626 36.1582 15.1843 36.0799 15.106 36.0799C15.0278 36.0017 15.0278 36.0017 14.9495 36.0017C14.8713 35.9234 14.793 35.9234 14.7147 35.8452C14.6365 35.8452 14.6365 35.7669 14.5582 35.7669C14.48 35.6886 14.4017 35.6886 14.3234 35.6104C14.2452 35.6104 14.1669 35.5321 14.1669 35.5321C14.0887 35.5321 14.0104 35.4538 13.8539 35.4538C13.7756 35.4538 13.6973 35.4538 13.6973 35.3756C13.6191 35.3756 13.4626 35.2973 13.3843 35.2973C13.306 35.2973 13.306 35.2973 13.2278 35.2973C13.0713 35.2973 12.9147 35.2973 12.7582 35.2973C12.6017 35.2973 12.4452 35.2973 12.2887 35.2973C12.2104 35.2973 12.2104 35.2973 12.1321 35.2973C12.0539 35.2973 11.8973 35.2973 11.8191 35.3756C11.7408 35.3756 11.6626 35.3756 11.6626 35.4538C11.5843 35.4538 11.506 35.5321 11.4278 35.5321C11.3495 35.5321 11.2713 35.6104 11.193 35.6104C11.1147 35.6104 11.0365 35.6886 10.9582 35.6886C10.88 35.6886 10.8017 35.7669 10.7234 35.7669C10.6452 35.8452 10.5669 35.8452 10.4887 35.9234C10.4104 36.0017 10.3321 36.0017 10.3321 36.0799C10.2539 36.1582 10.2539 36.1582 10.1756 36.2365C10.0973 36.3147 10.0191 36.3147 10.0191 36.393C9.78431 36.4712 9.78431 36.5495 9.70605 36.6278C9.62778 36.706 9.62778 36.7843 9.54952 36.7843H5.08865V33.6538H35.6104C36.08 33.6538 36.393 33.3408 36.393 32.8712V21.1321H43.0452L44.3756 22.6973H41.8713C41.4017 22.6973 41.0886 23.0104 41.0886 23.4799V27.7843C41.0886 28.2538 41.4017 28.5669 41.8713 28.5669H48.9147V36.7843Z" fill="#E7426A"/>
<path d="M30.2904 16.9055C29.586 13.2273 26.3773 10.5664 22.5425 10.5664H16.4382C12.6817 10.5664 9.47296 13.2273 8.69035 16.9055C7.75122 17.2186 7.04688 18.0794 7.04688 19.0968C7.04688 19.7229 7.28166 20.2708 7.67296 20.6621C7.28166 21.0534 7.04688 21.6012 7.04688 22.2273C7.04688 23.2447 7.75122 24.1838 8.69035 24.4186C9.3947 28.0968 12.6034 30.7577 16.4382 30.7577H22.5425C26.299 30.7577 29.5077 28.0968 30.2904 24.4186C31.2295 24.1055 31.9338 23.2447 31.9338 22.2273C31.9338 21.6012 31.699 21.0534 31.3077 20.6621C31.699 20.2708 31.9338 19.7229 31.9338 19.0968C32.0121 18.0794 31.3077 17.2186 30.2904 16.9055ZM16.4382 12.1316H22.5425C25.4382 12.1316 27.8643 14.0881 28.6469 16.8273H28.3338L28.1773 16.6708C27.8643 16.2012 27.3164 16.0447 26.7686 16.0447H26.299C25.7512 16.0447 25.2034 16.2794 24.8121 16.6708C24.7338 16.749 24.5773 16.8273 24.4208 16.8273H23.9512C23.7947 16.8273 23.6382 16.749 23.5599 16.6708C23.1686 16.2012 22.6208 16.0447 22.073 16.0447H21.6034C21.0556 16.0447 20.5077 16.2794 20.1164 16.6708C20.0382 16.749 19.8817 16.8273 19.7251 16.8273H19.2556C19.099 16.8273 18.9425 16.749 18.8643 16.6708C18.5512 16.2012 18.0034 16.0447 17.4556 16.0447H16.986C16.4382 16.0447 15.8904 16.2794 15.499 16.6708C15.4208 16.749 15.2643 16.8273 15.1077 16.8273H14.6382C14.4817 16.8273 14.3251 16.749 14.2469 16.6708C13.8556 16.2012 13.3077 16.0447 12.7599 16.0447H12.2904C11.7425 16.0447 11.1947 16.2794 10.8034 16.6708L10.6469 16.749H10.4121C11.1164 14.0881 13.6208 12.1316 16.4382 12.1316ZM9.3947 18.3142H11.273L11.899 17.6881C12.0556 17.6099 12.1338 17.5316 12.2904 17.5316H12.7599C12.9164 17.5316 13.073 17.6099 13.1512 17.6881C13.5425 18.0794 14.0904 18.3142 14.6382 18.3142H15.1077C15.6556 18.3142 16.2034 18.0794 16.5947 17.6881C16.673 17.6099 16.8295 17.5316 16.986 17.5316H17.4556C17.6121 17.5316 17.7686 17.6099 17.8469 17.6881C18.2382 18.0794 18.786 18.3142 19.3338 18.3142H19.8034C20.3512 18.3142 20.899 18.0794 21.2904 17.6881C21.3686 17.6099 21.5251 17.5316 21.6034 17.5316H22.073C22.2295 17.5316 22.386 17.6099 22.4643 17.6881C22.8556 18.0794 23.4034 18.3142 23.9512 18.3142H24.4208C24.9686 18.3142 25.5164 18.0794 25.9077 17.6881C25.986 17.6099 26.1425 17.5316 26.299 17.5316H26.7686C26.9251 17.5316 27.0817 17.6099 27.1599 17.6881L27.786 18.3142H29.6643C30.0556 18.3142 30.4469 18.6273 30.4469 19.0968C30.4469 19.5664 30.1338 19.8794 29.6643 19.8794H9.3947C9.0034 19.8794 8.61209 19.5664 8.61209 19.0968C8.61209 18.6273 9.0034 18.3142 9.3947 18.3142ZM22.6208 29.1925H16.5164C13.6208 29.1925 11.1947 27.236 10.4121 24.4968H28.7251C27.9425 27.3142 25.5164 29.1925 22.6208 29.1925ZM29.6643 23.0099H9.3947C9.0034 23.0099 8.61209 22.6968 8.61209 22.2273C8.61209 21.7577 8.92514 21.4447 9.3947 21.4447H29.586C29.9773 21.4447 30.3686 21.7577 30.3686 22.2273C30.3686 22.6968 30.0556 23.0099 29.6643 23.0099Z" fill="#E7426A"/>
</svg>
