<svg width="256" height="344" viewBox="0 0 256 344" fill="none" xmlns="http://www.w3.org/2000/svg">
<path d="M124.829 343.09C119.354 343.09 113.88 340.901 110.595 336.524L108.953 334.335C78.8422 301.504 0.0078125 213.955 0.0078125 124.218C0.0078125 83.7266 26.2859 5.47985 125.376 0.00805664V0.555236H125.924V0.00805664V0.555236C139.063 -1.0863 168.626 4.93267 186.145 12.5932C217.897 25.7255 255.672 55.2732 255.672 120.935C256.767 130.237 261.694 200.823 140.158 335.976C136.326 340.354 130.851 343.09 124.829 343.09ZM125.924 16.4235C18.074 22.4424 16.4316 119.84 16.4316 124.218C16.4316 207.936 92.5287 291.655 120.997 323.391L122.639 325.58C123.187 326.127 124.281 326.674 124.829 326.674C125.924 326.674 127.019 326.127 127.566 325.033C191.619 254.447 218.445 203.012 229.941 172.37C241.986 139.539 239.248 123.124 239.248 122.576V120.935C239.248 90.2927 230.489 65.6696 212.423 48.1599C179.575 16.4235 128.661 16.4235 125.924 16.4235Z" fill="#826A5C"/>
<path d="M128.662 176.747C99.099 176.747 75.0107 152.671 75.0107 123.124C75.0107 93.5758 99.099 69.4999 128.662 69.4999C158.225 69.4999 182.313 93.5758 182.313 123.124C182.313 152.671 158.772 176.747 128.662 176.747ZM128.662 85.9153C107.858 85.9153 91.4346 102.878 91.4346 123.124C91.4346 143.916 108.406 160.332 128.662 160.332C148.918 160.332 165.889 143.369 165.889 123.124C166.437 102.331 149.465 85.9153 128.662 85.9153Z" fill="#826A5C"/>
</svg>
