<svg width="49" height="45" viewBox="0 0 49 45" fill="none" xmlns="http://www.w3.org/2000/svg">
<path d="M1.35592 0.758581C0.745119 0.758581 0.25 1.26121 0.25 1.88124C0.25 2.50127 0.745119 3.0039 1.35592 3.0039H7.09286L12.9162 30.9651C12.8568 31.6047 13.4419 32.2253 14.074 32.193H41.7219C42.3062 32.2014 42.8436 31.6636 42.8436 31.0704C42.8436 30.4772 42.3062 29.9393 41.7219 29.9477H14.9725L14.0394 25.4571H43.9337C44.4289 25.4515 44.8968 25.0705 45.0051 24.5801L48.8758 7.74012C49.0196 7.08858 48.4622 6.37665 47.8044 6.37188H10.065L9.08009 1.63566C8.97049 1.13945 8.49234 0.754242 7.99142 0.758581H1.35592ZM10.5316 8.6172H46.422L43.0524 23.2118H13.5729L10.5316 8.6172ZM19.6036 34.4383C16.8682 34.4383 14.6269 36.7135 14.6269 39.4903C14.6269 42.2672 16.8682 44.5423 19.6036 44.5423C22.339 44.5423 24.5802 42.2672 24.5802 39.4903C24.5802 36.7135 22.339 34.4383 19.6036 34.4383ZM36.1923 34.4383C33.4569 34.4383 31.2157 36.7135 31.2157 39.4903C31.2157 42.2672 33.4569 44.5423 36.1923 44.5423C38.9277 44.5423 41.1689 42.2672 41.1689 39.4903C41.1689 36.7135 38.9277 34.4383 36.1923 34.4383ZM19.6036 36.6837C21.1436 36.6837 22.3683 37.9269 22.3683 39.4903C22.3683 41.0537 21.1436 42.297 19.6036 42.297C18.0636 42.297 16.8388 41.0537 16.8388 39.4903C16.8388 37.927 18.0636 36.6837 19.6036 36.6837ZM36.1923 36.6837C37.7324 36.6837 38.9571 37.9269 38.9571 39.4903C38.9571 41.0537 37.7324 42.297 36.1923 42.297C34.6523 42.297 33.4275 41.0537 33.4275 39.4903C33.4275 37.927 34.6523 36.6837 36.1923 36.6837Z" fill="#D17EAC"/>
</svg>
