<svg width="46" height="40" viewBox="0 0 46 40" fill="none" xmlns="http://www.w3.org/2000/svg">
<path d="M38.9565 5.48938C38.3605 2.32912 35.6452 0.0429688 32.4001 0.0429688H27.2344C24.0555 0.0429688 21.3401 2.32912 20.6779 5.48938C19.8832 5.75834 19.2871 6.49797 19.2871 7.37209C19.2871 7.91001 19.4858 8.38068 19.8169 8.71688C19.4858 9.05308 19.2871 9.52376 19.2871 10.0617C19.2871 10.9358 19.8832 11.7427 20.6779 11.9444C21.2739 15.1046 23.9892 17.3908 27.2344 17.3908H32.4001C35.579 17.3908 38.2943 15.1046 38.9565 11.9444C39.7513 11.6754 40.3473 10.9358 40.3473 10.0617C40.3473 9.52376 40.1486 9.05308 39.8175 8.71688C40.1486 8.38068 40.3473 7.91001 40.3473 7.37209C40.4135 6.49797 39.8175 5.75834 38.9565 5.48938ZM27.2344 1.38776H32.4001C34.8505 1.38776 36.9035 3.06875 37.5658 5.42214H37.3009L37.1684 5.28766C36.9035 4.88422 36.4399 4.74974 35.9763 4.74974H35.579C35.1154 4.74974 34.6518 4.95146 34.3206 5.28766C34.2544 5.3549 34.122 5.42214 33.9895 5.42214H33.5922C33.4597 5.42214 33.3272 5.3549 33.261 5.28766C32.9299 4.88422 32.4663 4.74974 32.0027 4.74974H31.6053C31.1418 4.74974 30.6782 4.95146 30.347 5.28766C30.2808 5.3549 30.1483 5.42214 30.0159 5.42214H29.6185C29.4861 5.42214 29.3536 5.3549 29.2874 5.28766C29.0225 4.88422 28.5589 4.74974 28.0953 4.74974H27.6979C27.2344 4.74974 26.7708 4.95146 26.4396 5.28766C26.3734 5.3549 26.2409 5.42214 26.1085 5.42214H25.7111C25.5787 5.42214 25.4462 5.3549 25.38 5.28766C25.0489 4.88422 24.5853 4.74974 24.1217 4.74974H23.7243C23.2607 4.74974 22.7971 4.95146 22.466 5.28766L22.3336 5.3549H22.1349C22.7309 3.06875 24.8502 1.38776 27.2344 1.38776ZM21.2739 6.69969H22.8634L23.3932 6.16178C23.5256 6.09454 23.5919 6.0273 23.7243 6.0273H24.1217C24.2541 6.0273 24.3866 6.09454 24.4528 6.16178C24.784 6.49797 25.2475 6.69969 25.7111 6.69969H26.1085C26.5721 6.69969 27.0357 6.49797 27.3668 6.16178C27.433 6.09454 27.5655 6.0273 27.6979 6.0273H28.0953C28.2278 6.0273 28.3602 6.09454 28.4264 6.16178C28.7576 6.49797 29.2212 6.69969 29.6848 6.69969H30.0821C30.5457 6.69969 31.0093 6.49797 31.3404 6.16178C31.4067 6.09454 31.5391 6.0273 31.6053 6.0273H32.0027C32.1352 6.0273 32.2676 6.09454 32.3338 6.16178C32.665 6.49797 33.1286 6.69969 33.5922 6.69969H33.9895C34.4531 6.69969 34.9167 6.49797 35.2478 6.16178C35.3141 6.09454 35.4465 6.0273 35.579 6.0273H35.9763C36.1088 6.0273 36.2412 6.09454 36.3075 6.16178L36.8373 6.69969H38.4267C38.7579 6.69969 39.089 6.96865 39.089 7.37209C39.089 7.77553 38.8241 8.04449 38.4267 8.04449H21.2739C20.9428 8.04449 20.6117 7.77553 20.6117 7.37209C20.6117 6.96865 20.9428 6.69969 21.2739 6.69969ZM32.4663 16.046H27.3006C24.8502 16.046 22.7971 14.365 22.1349 12.0116H37.632C36.9697 14.4323 34.9167 16.046 32.4663 16.046ZM38.4267 10.7341H21.2739C20.9428 10.7341 20.6117 10.4651 20.6117 10.0617C20.6117 9.65824 20.8766 9.38928 21.2739 9.38928H38.3605C38.6916 9.38928 39.0228 9.65824 39.0228 10.0617C39.0228 10.4651 38.7579 10.7341 38.4267 10.7341Z" fill="#E7426A"/>
<path d="M1.76611 26.0877L1.76612 26.0877L1.76892 26.0853L4.47236 23.6922L4.47255 23.692C5.17875 23.0663 6.26676 23.1321 6.89266 23.8391C6.89267 23.8391 6.89267 23.8391 6.89267 23.8391L6.93724 23.8894L7.346 24.3512L7.71327 23.8558C8.58469 22.6804 9.58695 21.5745 10.7262 20.6977L10.7264 20.6976C13.3833 18.6502 16.9368 17.6907 19.8226 19.4527C21.6063 20.5431 23.6076 21.4496 25.7174 21.828L25.7612 21.8358H25.8057H31.8688C32.9439 21.8358 33.717 22.4507 33.9648 23.4497L34.1609 24.2405L34.7772 23.7075L41.2291 18.1273L41.2292 18.1272C42.1794 17.305 43.4057 17.4461 44.2233 18.3878C45.0452 19.3444 45.0036 20.6175 44.043 21.451L33.2987 30.7664L33.2987 30.7664C31.668 32.1805 29.8426 32.9119 27.6872 33.0139L27.6872 33.0139L16.3913 33.5496L15.7007 33.5823L15.9481 34.228C16.2033 34.8938 16.0207 35.6512 15.485 36.1256L15.485 36.1256L12.7825 38.5194C12.0756 39.1452 10.9881 39.0788 10.3621 38.3723L1.62278 28.5046L1.62273 28.5046C1.00135 27.8032 1.06445 26.6995 1.76611 26.0877ZM33.8687 25.0132L33.7992 25.0734L33.7555 25.1544C33.4264 25.766 32.8157 26.2221 31.8696 26.2221H18.6842C18.5749 26.2221 18.4851 26.1323 18.4851 26.0229C18.4851 25.9135 18.5749 25.8237 18.6842 25.8237H31.8696C32.3818 25.8237 32.8354 25.6431 33.1598 25.3035C33.4813 24.9668 33.6392 24.5126 33.6392 24.0285C33.6392 23.5544 33.4875 23.1013 33.1691 22.7623C32.8467 22.419 32.3917 22.2342 31.8696 22.2342H25.7791L25.705 22.2269C23.5511 21.8484 21.5084 20.9444 19.6185 19.7898C16.737 18.0288 13.2927 19.2176 10.9689 21.0081C9.7492 21.9471 8.72947 23.1153 7.85257 24.3342L7.6192 24.6586L7.88415 24.9577L15.0369 33.0334L15.1957 33.2126L15.4349 33.2013L27.6689 32.621C29.7306 32.5249 31.4854 31.8197 33.0433 30.4686L43.7877 21.1531L43.7881 21.1528C44.1792 20.813 44.3901 20.372 44.4024 19.9044C44.4145 19.4441 44.2336 19.0026 43.9263 18.6444L43.9256 18.6436C43.6246 18.2943 43.2261 18.0536 42.778 18.0009C42.3226 17.9472 41.8694 18.0944 41.4875 18.4239L41.4871 18.4243L33.8687 25.0132ZM2.032 26.381L2.03063 26.3822C1.51179 26.8456 1.43394 27.6399 1.87356 28.1918L1.88167 28.2019L1.8903 28.2117L10.6569 38.1125L10.6572 38.1128C11.1391 38.6561 11.9806 38.704 12.5223 38.2249L12.5226 38.2246L15.2252 35.8308L15.2254 35.8305C15.768 35.3493 15.8182 34.5085 15.3373 33.966C14.6026 33.1363 13.8676 32.3062 13.1325 31.476C10.9542 29.0158 8.77503 26.5545 6.59818 24.0993C6.11634 23.5537 5.27231 23.5081 4.73214 23.9871C4.73213 23.9871 4.73213 23.9871 4.73212 23.9871L2.032 26.381Z" fill="#EE3686" stroke="#E7426A"/>
</svg>
