<svg width="50" height="50" viewBox="0 0 50 50" fill="none" xmlns="http://www.w3.org/2000/svg">
<path d="M47.542 17.2754L42.9739 10.8916V3.33636C42.9739 1.86546 41.8034 0.675781 40.3551 0.675781H9.6797C8.23192 0.675781 7.06095 1.86546 7.06095 3.33636V10.8916L2.49381 17.2754C-0.830354 21.9169 0.594565 25.7543 5.565 26.3988V46.6638C5.565 48.1347 6.73597 49.3244 8.18376 49.3244H41.852C43.2998 49.3244 44.4708 48.1347 44.4708 46.6638V26.3988C49.4403 25.7543 50.8657 21.9164 47.542 17.2754ZM8.93197 3.33636C8.93197 2.91723 9.26716 2.5762 9.68019 2.5762H40.3556C40.7686 2.5762 41.1038 2.91723 41.1038 3.33636V9.77256H8.93197V3.33636ZM19.0319 11.673L15.5944 24.5953H9.26862L16.4876 11.673H19.0319ZM20.9701 11.673H23.8433V24.5953H17.5321L20.9701 11.673ZM25.7133 11.673H28.5865L32.024 24.5953H25.7133V11.673ZM33.9622 24.5953L30.5247 11.673H33.0685L40.2875 24.5953H33.9622ZM2.7784 22.9331C2.24911 21.8769 2.69667 20.2221 4.00678 18.3929L8.81473 11.673H14.3368L7.11787 24.5953H7.11349C4.88781 24.5953 3.3077 23.9893 2.7784 22.9331ZM30.5767 47.424H20.1022V31.461H30.5767V47.424ZM41.852 47.424H32.4468V30.7008C32.4468 30.0702 31.9457 29.5606 31.324 29.5606H19.354C18.7327 29.5606 18.2317 30.0697 18.2317 30.7008V47.424H8.18327C7.77073 47.424 7.43505 47.0834 7.43505 46.6638V26.4957H42.5998V46.6638C42.6003 47.0834 42.2646 47.424 41.852 47.424ZM47.2574 22.9331C46.7276 23.9893 45.148 24.5953 42.9213 24.5953H42.4387L35.2193 11.673H41.2206L46.0295 18.3934C47.3391 20.2221 47.7867 21.8769 47.2574 22.9331Z" fill="#FBBC8F"/>
</svg>
